# xmcd
#
# Track frame offsets: 
#        150
#        19495
#        37765
#        57515
#        80175
#
# Disc length: 1277 seconds
#
# Revision: 0
# Processed by: cddbd v1.5.2PL0 Copyright (c) Steve Scherf et al.
# Submitted via: ExactAudioCopy v0.95a3
#
DISCID=3d04fb05
DTITLE=Danzer Georg - Ich ... bin der Mörder
DYEAR=1994
DGENRE=Chanson
TTITLE0=Ich ... bin der Mörder (hahahahaha)
TTITLE1=Sado-Maso
TTITLE2=Der Zerrissene
TTITLE3=Ich ... bin der Mörder (die ganze Wahrheit)
TTITLE4=Ich ... bin der Mörder (ohne Worte)
EXTD=
EXTT0=
EXTT1=
EXTT2=
EXTT3=
EXTT4=
PLAYORDER=
